<svg xmlns="http://www.w3.org/2000/svg" viewBox="0 0 420 96" role="img" aria-label="Onyx">
  <title>Onyx</title>
  <g transform="translate(8 8) scale(0.15625)">
    <rect width="512" height="512" rx="112" fill="#0C0D0F"/>
    <g transform="translate(256 256)">
      <path d="M-150 -62 L-62 -150 L62 -150 L150 -62 L150 62 L62 150 L-62 150 L-150 62 Z" fill="#17181C"/>
      <path d="M-150 -62 L-62 -150 L-62 -62 Z" fill="#2A2C33"/>
      <path d="M62 -150 L150 -62 L62 -62 Z"   fill="#2A2C33"/>
      <path d="M150 62 L62 150 L62 62 Z"      fill="#2A2C33"/>
      <path d="M-62 150 L-150 62 L-62 62 Z"   fill="#2A2C33"/>
      <rect x="-62" y="-62" width="124" height="124" fill="#5B6CFF"/>
      <path d="M-62 62 L62 -62 L62 62 Z" fill="#3D4BD4"/>
    </g>
  </g>
  <text x="104" y="62" font-family="Inter Tight, -apple-system, BlinkMacSystemFont, sans-serif"
        font-size="46" font-weight="600" letter-spacing="-1" fill="#0C0D0F">Onyx</text>
</svg>
